<?xml version="1.0" encoding="utf-8"?>
<!-- Generator: Adobe Illustrator 22.0.0, SVG Export Plug-In . SVG Version: 6.00 Build 0)  -->
<svg version="1.1" id="Layer_1" xmlns="http://www.w3.org/2000/svg" xmlns:xlink="http://www.w3.org/1999/xlink" x="0px" y="0px"
	 viewBox="0 0 22 24" style="enable-background:new 0 0 22 24;" xml:space="preserve">
<style type="text/css">
	.st0{clip-path:url(#SVGID_2_);}
	.st1{fill:#404653;}
	.st2{clip-path:url(#SVGID_4_);}
</style>
<title>Create</title>
<g>
	<defs>
		<path id="SVGID_1_" d="M7.7,5.4c0.3-0.3,0.7-0.3,1,0s0.3,0.7,0,1l-4.9,4.9h16c0.4,0,0.7,0.3,0.7,0.7c0,0,0,0,0,0
			c0,0.4-0.3,0.7-0.7,0.7c0,0,0,0,0,0H3.8l4.9,4.9c0.3,0.3,0.3,0.7,0,1c0,0,0,0,0,0c-0.2,0.3-0.7,0.3-0.9,0.1c0,0,0,0-0.1-0.1l-6-6
			c-0.3-0.3-0.3-0.7,0-1c0,0,0,0,0,0L7.7,5.4z"/>
	</defs>
	<clipPath id="SVGID_2_">
		<use xlink:href="#SVGID_1_"  style="overflow:visible;"/>
	</clipPath>
	<g class="st0">
		<rect x="-176.5" y="-604.8" class="st1" width="375" height="667"/>
		<g>
			<defs>
				<rect id="SVGID_3_" x="-176.5" y="-604.8" width="375" height="667"/>
			</defs>
			<clipPath id="SVGID_4_">
				<use xlink:href="#SVGID_3_"  style="overflow:visible;"/>
			</clipPath>
			<g class="st2">
				<rect x="-3.5" y="0.2" class="st1" width="29.1" height="23.4"/>
			</g>
		</g>
	</g>
</g>
</svg>
