<svg id="Layer_1" data-name="Layer 1" xmlns="http://www.w3.org/2000/svg" xmlns:xlink="http://www.w3.org/1999/xlink" viewBox="0 0 19.11 13.54">
  <defs>
    <style>
      .cls-1 {
        fill: #404653;
      }
    </style>
  </defs>
  <title>Back3</title>
  <path class="cls-1" d="M8.7,3.44a.7.7,0,0,1,1,0,.72.72,0,0,1,0,1L4.83,9.32h16a.67.67,0,0,1,.68.66h0a.69.69,0,0,1-.67.69H4.79l4.87,4.87a.69.69,0,0,1,0,1l0,0a.68.68,0,0,1-.95.05l-.05-.05-6-6a.69.69,0,0,1,0-1l0,0Z"
    transform="translate(-2.44 -3.23)" />
</svg>
