<?xml version="1.0" encoding="utf-8"?>
<!-- Generator: Adobe Illustrator 22.0.0, SVG Export Plug-In . SVG Version: 6.00 Build 0)  -->
<svg version="1.1" id="Layer_1" xmlns="http://www.w3.org/2000/svg" xmlns:xlink="http://www.w3.org/1999/xlink" x="0px" y="0px"
	 viewBox="0 0 26.7 25.7" style="enable-background:new 0 0 26.7 25.7;" xml:space="preserve">
<style type="text/css">
	.st0{fill:#3F4552;stroke:#3F4552;stroke-width:0.75;stroke-miterlimit:10;}
</style>
<g>
	<g>
		<path class="st0" d="M25.1,11.5c-0.3,0-0.5-0.2-0.5-0.5V6.5h-22V11c0,0.3-0.2,0.5-0.5,0.5c-0.3,0-0.5-0.2-0.5-0.5V6
			c0-0.3,0.2-0.5,0.5-0.5h23c0.3,0,0.5,0.2,0.5,0.5v5C25.6,11.3,25.4,11.5,25.1,11.5z"/>
	</g>
	<g>
		<path class="st0" d="M13.1,8.5c-0.3,0-0.5-0.2-0.5-0.5V5c0-0.3,0.2-0.5,0.5-0.5c0.3,0,0.5,0.2,0.5,0.5v3
			C13.6,8.3,13.4,8.5,13.1,8.5z"/>
	</g>
	<g>
		<path class="st0" d="M19.1,8.5c-0.3,0-0.5-0.2-0.5-0.5V5c0-0.3,0.2-0.5,0.5-0.5c0.3,0,0.5,0.2,0.5,0.5v3
			C19.6,8.3,19.4,8.5,19.1,8.5z"/>
	</g>
	<g>
		<path class="st0" d="M7.1,8.5C6.8,8.5,6.6,8.3,6.6,8V5c0-0.3,0.2-0.5,0.5-0.5c0.3,0,0.5,0.2,0.5,0.5v3C7.6,8.3,7.4,8.5,7.1,8.5z"
			/>
	</g>
	<g>
		<path class="st0" d="M2.6,12.5v-2h22v2h1V10c0-0.3-0.2-0.5-0.5-0.5h-23c-0.3,0-0.5,0.2-0.5,0.5v2.5H2.6z"/>
		<path class="st0" d="M24.6,12v9h-22v-9h-1v9.5c0,0.3,0.2,0.5,0.5,0.5h23c0.3,0,0.5-0.2,0.5-0.5V12H24.6z"/>
	</g>
</g>
<g>
	<g>
		<path class="st0" d="M10.9,14.5h-2c-0.3,0-0.5-0.2-0.5-0.5s0.2-0.5,0.5-0.5h2c0.3,0,0.5,0.2,0.5,0.5S11.2,14.5,10.9,14.5z"/>
	</g>
	<g>
		<path class="st0" d="M18.4,14.5h-5c-0.3,0-0.5-0.2-0.5-0.5s0.2-0.5,0.5-0.5h5c0.3,0,0.5,0.2,0.5,0.5S18.7,14.5,18.4,14.5z"/>
	</g>
	<g>
		<path class="st0" d="M10.9,17.5h-2c-0.3,0-0.5-0.2-0.5-0.5s0.2-0.5,0.5-0.5h2c0.3,0,0.5,0.2,0.5,0.5S11.2,17.5,10.9,17.5z"/>
	</g>
	<g>
		<path class="st0" d="M18.4,17.5h-5c-0.3,0-0.5-0.2-0.5-0.5s0.2-0.5,0.5-0.5h5c0.3,0,0.5,0.2,0.5,0.5S18.7,17.5,18.4,17.5z"/>
	</g>
</g>
</svg>
