
<svg width="25px" height="26px" viewBox="0 0 25 26" version="1.1" xmlns="http://www.w3.org/2000/svg" xmlns:xlink="http://www.w3.org/1999/xlink">
    <g id="Page-1" stroke="none" stroke-width="1" fill="none" fill-rule="evenodd">
        <path d="M24.9944519,12.6854823 C25.0724338,14.6296697 24.3254163,16.242813 22.9390706,17.118378 C21.7953353,17.8398683 20.3916603,17.8967955 19.2751569,17.2668837 C18.0367293,16.5682881 17.3262271,15.1500584 17.3262271,13.3766527 L17.3262271,10.97086 C17.2470073,11.0853332 17.1603607,11.2177508 17.0662873,11.3712067 L14.130824,16.1289586 C13.1399581,17.7377706 12.196129,17.8602878 11.5784624,17.6808434 C10.9614148,17.501399 10.2255376,16.8881941 10.2255376,14.9910336 L10.2255376,11.0414002 L4.8887254,19.6089427 C6.76214885,21.7276243 9.47852001,23.063557 12.4975354,23.063557 C15.0835383,23.0640392 17.5713626,22.073504 19.449069,20.2957816 C19.6687496,20.088216 19.9627569,19.977805 20.2647927,19.9894462 C20.5668286,20.0010874 20.8514614,20.1338005 21.0545068,20.357659 C21.4815508,20.8242145 21.454319,21.5537488 20.9938542,21.9868905 C18.6772953,24.1680682 15.6595177,25.369727 12.4975354,25.369727 C5.60665444,25.369727 1.42108547e-14,19.6788641 1.42108547e-14,12.6848635 C1.42108547e-14,5.69024414 5.60665444,-2.84217094e-14 12.4969165,-2.84217094e-14 C19.3692303,-2.84217094e-14 24.9622689,5.6580679 24.993833,12.6279363 L24.9944519,12.6563999 L24.9944519,12.6848635 L24.9944519,12.6854823 Z M21.7383961,15.1599588 L21.7383961,15.1605776 C22.418572,14.7311486 22.7775365,13.8493959 22.7243108,12.7411719 C22.7236919,12.7312715 22.7255486,12.7226087 22.7255486,12.7127083 C22.7249297,12.7034267 22.722454,12.6947639 22.722454,12.6848635 C22.722454,6.96182436 18.135754,2.30617006 12.4975354,2.30617006 C6.85931683,2.30617006 2.2719896,6.96182436 2.2719896,12.6848635 C2.26986163,14.3844792 2.68287383,16.0589075 3.47514789,17.5626576 L9.39311121,8.06200423 C10.1073268,6.96924965 10.8425852,6.91170368 11.3339952,7.05525921 C12.0766804,7.27244882 12.467828,7.99270156 12.4975354,9.19683543 L12.4975354,14.4304245 L15.1390191,10.1485096 C15.5623497,9.46043308 16.6887556,7.62824377 18.1865041,8.06447932 C19.0702995,8.32127046 19.5988438,9.27232584 19.5988438,10.6088773 L19.5988438,13.3766527 C19.5988438,14.3017195 19.8754941,14.9669014 20.3786633,15.2509186 C20.7747621,15.4742959 21.2958795,15.4396446 21.7383961,15.1599588 Z" id="Combined-Shape" fill="#FFFFFF"></path>
    </g>
</svg>
