<svg id="Layer_1" data-name="Layer 1" xmlns="http://www.w3.org/2000/svg" viewBox="0 0 16.49 13"><defs><style>.cls-1{fill:#404653;}</style></defs><title>Copy</title><path class="cls-1" d="M23.25,31.5a.5.5,0,0,1-.35-.15l-6-6a.5.5,0,0,1,0-.7l6-6a.5.5,0,0,1,.71,0l6,6a.5.5,0,0,1,0,.7l-6,6A.51.51,0,0,1,23.25,31.5ZM18,25l5.29,5.29L28.55,25l-5.3-5.29Z" transform="translate(-16.75 -18.5)"/><path class="cls-1" d="M27.1,31.49a.45.45,0,0,1-.36-.13l-6.31-5.67a.5.5,0,0,1,0-.71l5.68-6.31a.49.49,0,0,1,.7,0l6.31,5.67a.5.5,0,0,1,0,.71l-5.68,6.31A.52.52,0,0,1,27.1,31.49Zm-5.63-6.21,5.56,5,5-5.57-5.56-5Z" transform="translate(-16.75 -18.5)"/></svg>