<svg id="Layer_1" data-name="Layer 1" xmlns="http://www.w3.org/2000/svg" viewBox="0 0 22 24"><defs><style>.cls-1{fill:#404653;}</style></defs><title>Create</title><path class="cls-1" d="M25,37a.46.46,0,0,1-.23-.06l-10.5-5.5A.48.48,0,0,1,14,31V19a.48.48,0,0,1,.27-.44l10.5-5.5a.47.47,0,0,1,.46,0l10.5,5.5A.48.48,0,0,1,36,19V31a.48.48,0,0,1-.27.44l-10.5,5.5A.46.46,0,0,1,25,37ZM15,30.7l10,5.24L35,30.7V19.3L25,14.06,15,19.3Z" transform="translate(-14 -13)"/><path class="cls-1" d="M20.25,25.25a.5.5,0,0,1,.5-.5h6a.5.5,0,0,1,0,1h-6A.5.5,0,0,1,20.25,25.25Z" transform="translate(-14 -13)"/><path class="cls-1" d="M22.75,25.25a.5.5,0,0,1,.5-.5h6a.5.5,0,0,1,0,1h-6A.5.5,0,0,1,22.75,25.25Z" transform="translate(-14 -13)"/><path class="cls-1" d="M25,30a.5.5,0,0,1-.5-.5v-6a.5.5,0,0,1,1,0v6A.5.5,0,0,1,25,30Z" transform="translate(-14 -13)"/><path class="cls-1" d="M25,27.5a.5.5,0,0,1-.5-.5V21a.5.5,0,0,1,1,0v6A.5.5,0,0,1,25,27.5Z" transform="translate(-14 -13)"/></svg>