<?xml version="1.0" encoding="utf-8"?>
<!-- Generator: Adobe Illustrator 22.0.0, SVG Export Plug-In . SVG Version: 6.00 Build 0)  -->
<svg version="1.1" id="Layer_1" xmlns="http://www.w3.org/2000/svg" xmlns:xlink="http://www.w3.org/1999/xlink" x="0px" y="0px"
	 viewBox="0 0 24 28.3" style="enable-background:new 0 0 24 28.3;" xml:space="preserve">
<style type="text/css">
	.st0{fill:none;stroke:#3F4552;stroke-linejoin:round;stroke-miterlimit:10;}
	.st1{fill:none;stroke:#3F4552;stroke-linecap:round;stroke-linejoin:round;stroke-miterlimit:10;}
</style>
<g>
	<polygon class="st0" points="8.5,6.6 5.5,4.6 8.5,2.6 15.5,2.6 18.5,4.6 15.5,6.6 	"/>
	<polyline class="st0" points="18.5,4.6 18.5,9.1 12,14.1 5.5,9.1 5.5,4.6 	"/>
	<polygon class="st0" points="5.5,23.6 5.5,19.1 12,14.1 18.5,19.1 18.5,23.6 15.5,25.6 8.5,25.6 	"/>
	<polyline class="st1" points="14.5,9.1 12,11.1 9.5,9.1 	"/>
	<polyline class="st1" points="16.5,22.6 15,22.6 12,21.1 9,22.6 7.5,22.6 	"/>
	<line class="st1" x1="12" y1="17.1" x2="12" y2="18.1"/>
	<line class="st1" x1="12" y1="20.1" x2="12" y2="21.1"/>
</g>
<title>Wallet</title>
</svg>
