<svg id="Layer_1" data-name="Layer 1" xmlns="http://www.w3.org/2000/svg" viewBox="0 0 246.79 269.47"><defs><style>.cls-1{fill:#ffffff;}</style></defs><title>Kucoin_icon</title><g id="图层_1"><path id="_157067296" data-name=" 157067296" class="cls-1" d="M55.72,50.07l79.8,79.8,50.36-50.36a22.78,22.78,0,1,1,32.21,32.22L151.62,178.2a22.93,22.93,0,0,1-32.21,0L23.53,82.3v57A22.87,22.87,0,0,1,.75,162.09,22.78,22.78,0,0,1-22,139.31V-39.17A22.78,22.78,0,0,1,.75-61.95,22.79,22.79,0,0,1,23.53-39.17v57l95.88-95.9a22.93,22.93,0,0,1,32.21,0l66.47,66.47a22.78,22.78,0,1,1-32.21,32.21L135.52-29.73l-79.8,79.8Zm79.83-22.8a22.8,22.8,0,1,1-22.8,22.8A22.8,22.8,0,0,1,135.55,27.27Z" transform="translate(22.03 84.67)"/></g></svg>
