<?xml version="1.0" encoding="utf-8"?>
<!-- Generator: Adobe Illustrator 22.0.0, SVG Export Plug-In . SVG Version: 6.00 Build 0)  -->
<svg version="1.1" id="Layer_1" xmlns="http://www.w3.org/2000/svg" xmlns:xlink="http://www.w3.org/1999/xlink" x="0px" y="0px"
	 viewBox="0 0 324 406.9" style="enable-background:new 0 0 324 406.9;" xml:space="preserve">
<style type="text/css">
	.st0{fill:#19193A;}
	.st1{fill:#752BF7;}
</style>
<g>
	<path class="st0" d="M35.6,371.6c0,0.4-0.1,0.7-0.4,1c-0.2,0.3-0.6,0.4-0.9,0.4c-0.3,0-0.5-0.1-0.7-0.2c-0.2-0.2-0.4-0.4-0.5-0.6
		l-2.2-5.9H20.3l-2.2,5.9c-0.1,0.3-0.3,0.5-0.5,0.6c-0.2,0.2-0.5,0.2-0.7,0.2c-0.4,0-0.7-0.1-0.9-0.4c-0.2-0.3-0.4-0.6-0.4-1
		c0-0.1,0.1-0.4,0.3-1c0.2-0.6,0.4-1.3,0.8-2.2c0.3-0.9,0.7-1.9,1.1-3c0.4-1.1,0.8-2.2,1.2-3.3c0.4-1.2,0.9-2.3,1.3-3.4
		c0.4-1.1,0.8-2.2,1.2-3.1c0.4-1,0.7-1.8,0.9-2.5c0.3-0.7,0.4-1.2,0.6-1.5l1-2.8c0.1-0.2,0.2-0.3,0.2-0.5c0-0.1,0.1-0.2,0.1-0.3
		s0.1-0.2,0.1-0.3c0.1-0.2,0.3-0.4,0.4-0.5c0.2-0.2,0.4-0.3,0.8-0.3c0.3,0,0.6,0.1,0.8,0.3c0.2,0.2,0.3,0.4,0.4,0.5
		c0,0.1,0.1,0.2,0.1,0.3c0,0.1,0.1,0.2,0.1,0.3c0,0.2,0.1,0.3,0.2,0.5l1,2.8c0.1,0.3,0.3,0.8,0.5,1.5c0.3,0.7,0.6,1.5,1,2.5
		c0.4,1,0.8,2,1.2,3.1c0.4,1.1,0.9,2.3,1.3,3.4c0.4,1.1,0.8,2.2,1.2,3.3c0.4,1.1,0.8,2.1,1.1,3c0.3,0.9,0.6,1.6,0.8,2.2
		C35.5,371.2,35.6,371.5,35.6,371.6z M29.9,363.6L25.6,352l-4.3,11.6H29.9z"/>
	<path class="st0" d="M72.6,354.9c0,1.1-0.2,2.2-0.6,3.1c-0.4,1-1,1.8-1.7,2.5c-0.7,0.7-1.5,1.3-2.5,1.7c-0.9,0.4-1.9,0.6-3,0.6
		h-4.4v8.7c0,0.4-0.1,0.7-0.4,1c-0.3,0.3-0.6,0.4-0.9,0.4c-0.3,0-0.6-0.1-0.9-0.4c-0.3-0.3-0.4-0.6-0.4-1v-23.4
		c0-0.4,0.1-0.7,0.4-0.9c0.3-0.3,0.6-0.4,0.9-0.4h5.7c1.1,0,2.1,0.2,3,0.6c0.9,0.4,1.8,1,2.5,1.7c0.7,0.7,1.3,1.6,1.7,2.5
		C72.4,352.7,72.6,353.8,72.6,354.9z M70,354.9c0-0.7-0.1-1.4-0.4-2.1c-0.3-0.7-0.6-1.2-1.1-1.7c-0.5-0.5-1-0.9-1.6-1.2
		c-0.6-0.3-1.3-0.4-2-0.4h-4.3v10.8h4.3c0.7,0,1.4-0.1,2-0.4c0.6-0.3,1.2-0.7,1.6-1.2c0.5-0.5,0.8-1.1,1.1-1.7
		C69.9,356.3,70,355.6,70,354.9z"/>
	<path class="st0" d="M111.4,371.6c0,0.4-0.1,0.7-0.4,1c-0.2,0.3-0.5,0.4-0.9,0.4c-0.3,0-0.6-0.1-0.9-0.4c-0.3-0.3-0.4-0.6-0.4-1
		v-10.4h-9.3v10.4c0,0.4-0.1,0.7-0.4,1c-0.3,0.3-0.6,0.4-0.9,0.4c-0.4,0-0.7-0.1-0.9-0.4c-0.2-0.3-0.4-0.6-0.4-1v-23.4
		c0-0.4,0.1-0.7,0.4-0.9c0.2-0.3,0.5-0.4,0.9-0.4c0.3,0,0.6,0.1,0.9,0.4c0.3,0.3,0.4,0.6,0.4,0.9v10.4h9.3v-10.4
		c0-0.4,0.1-0.7,0.4-0.9c0.3-0.3,0.6-0.4,0.9-0.4c0.4,0,0.7,0.1,0.9,0.4c0.2,0.3,0.4,0.6,0.4,0.9V371.6z"/>
	<path class="st0" d="M151.7,371.6c0,0.4-0.1,0.7-0.4,1c-0.2,0.3-0.5,0.4-0.9,0.4h-12.9c-0.3,0-0.6-0.1-0.9-0.4
		c-0.2-0.3-0.4-0.6-0.4-1v-23.4c0-0.4,0.1-0.7,0.4-0.9c0.2-0.3,0.5-0.4,0.9-0.4h12.9c0.3,0,0.6,0.1,0.9,0.4c0.2,0.3,0.4,0.6,0.4,0.9
		c0,0.4-0.1,0.7-0.4,0.9c-0.2,0.3-0.5,0.4-0.9,0.4h-11.7v9.1h9.1c0.4,0,0.7,0.1,0.9,0.4c0.2,0.3,0.4,0.6,0.4,1
		c0,0.4-0.1,0.7-0.4,0.9s-0.5,0.4-0.9,0.4h-9.1v9.1h11.7c0.3,0,0.6,0.1,0.9,0.4C151.6,371,151.7,371.3,151.7,371.6z"/>
	<path class="st0" d="M192.3,371.6c0,0.4-0.1,0.7-0.4,1c-0.3,0.3-0.6,0.4-0.9,0.4h-12.9c-0.3,0-0.6-0.1-0.9-0.4
		c-0.3-0.3-0.4-0.6-0.4-1v-23.5c0-0.4,0.1-0.7,0.4-0.9c0.3-0.3,0.6-0.4,0.9-0.4c0.4,0,0.7,0.1,0.9,0.4c0.3,0.3,0.4,0.6,0.4,0.9v22.2
		H191c0.3,0,0.6,0.1,0.9,0.4C192.2,371,192.3,371.3,192.3,371.6z"/>
	<path class="st0" d="M229.6,371.6c0,0.4-0.1,0.7-0.4,1c-0.2,0.3-0.5,0.4-0.9,0.4h-12.5c-0.4,0-0.7-0.1-0.9-0.4
		c-0.2-0.3-0.4-0.6-0.4-1c0-0.4,0.1-0.7,0.4-0.9s0.5-0.4,0.9-0.4h5v-20.8h-5c-0.4,0-0.7-0.1-0.9-0.4c-0.2-0.3-0.4-0.6-0.4-1
		c0-0.4,0.1-0.7,0.4-0.9c0.2-0.3,0.5-0.4,0.9-0.4h12.5c0.4,0,0.7,0.1,0.9,0.4c0.2,0.3,0.4,0.6,0.4,0.9c0,0.4-0.1,0.7-0.4,1
		c-0.2,0.3-0.5,0.4-0.9,0.4h-5v20.8h5c0.4,0,0.7,0.1,0.9,0.4C229.5,371,229.6,371.3,229.6,371.6z"/>
	<path class="st0" d="M268.8,365.4c0,1.1-0.2,2.1-0.6,3c-0.4,0.9-0.9,1.8-1.6,2.5c-0.7,0.7-1.5,1.3-2.4,1.7
		c-0.9,0.4-1.9,0.6-2.9,0.6c-1,0-2-0.2-2.9-0.6c-0.9-0.4-1.7-1-2.4-1.7c-0.7-0.7-1.2-1.5-1.6-2.5c-0.4-0.9-0.6-1.9-0.6-3v-10.8
		c0-1.1,0.2-2.1,0.6-3c0.4-0.9,0.9-1.8,1.6-2.5c0.7-0.7,1.5-1.3,2.4-1.7c0.9-0.4,1.9-0.6,2.9-0.6c1,0,2,0.2,2.9,0.6
		c0.9,0.4,1.7,1,2.4,1.7c0.7,0.7,1.2,1.5,1.6,2.5c0.4,0.9,0.6,1.9,0.6,3V365.4z M266.2,365.4v-10.8c0-0.7-0.1-1.3-0.4-1.9
		c-0.3-0.6-0.6-1.2-1-1.6c-0.4-0.5-0.9-0.8-1.5-1.1c-0.6-0.3-1.2-0.4-1.9-0.4c-0.7,0-1.3,0.1-1.9,0.4c-0.6,0.3-1.1,0.6-1.5,1.1
		c-0.4,0.5-0.8,1-1,1.6c-0.3,0.6-0.4,1.3-0.4,1.9v10.8c0,0.7,0.1,1.3,0.4,1.9c0.3,0.6,0.6,1.2,1,1.6c0.4,0.5,0.9,0.8,1.5,1.1
		c0.6,0.3,1.2,0.4,1.9,0.4c0.7,0,1.3-0.1,1.9-0.4c0.6-0.3,1.1-0.6,1.5-1.1c0.4-0.5,0.8-1,1-1.6C266.1,366.7,266.2,366,266.2,365.4z"
		/>
	<path class="st0" d="M308.4,371.6c0,0.4-0.1,0.7-0.4,1c-0.2,0.3-0.5,0.4-0.9,0.4c-0.5,0-0.9-0.2-1.1-0.7l-10.5-19.1v18.4
		c0,0.4-0.1,0.7-0.4,1c-0.2,0.3-0.5,0.4-0.9,0.4c-0.4,0-0.7-0.1-0.9-0.4c-0.2-0.3-0.4-0.6-0.4-1v-23.5c0-0.4,0.1-0.7,0.4-0.9
		c0.2-0.3,0.5-0.4,0.9-0.4c0.5,0,0.9,0.2,1.1,0.7l10.5,19.1v-18.5c0-0.4,0.1-0.7,0.4-0.9c0.2-0.3,0.5-0.4,0.9-0.4
		c0.4,0,0.7,0.1,0.9,0.4c0.2,0.3,0.4,0.6,0.4,0.9V371.6z"/>
</g>
<title>logo</title>
<path class="st1" d="M162,34C89.8,34,31,92.8,31,165s58.8,131,131,131s131-58.8,131-131S234.2,34,162,34z M267.6,165
	c0,14.3-2.9,28.5-8.6,41.7L188.4,62.7C233.9,74.4,267.6,115.9,267.6,165z M161.1,128.2l25.6,52.1h-51.1L161.1,128.2z M133.6,63.3
	L69.1,195.1l-4.6,10.4c-5.3-12.8-8.1-26.6-8.1-40.5C56.4,116.6,89.1,75.7,133.6,63.3L133.6,63.3z M162,270.6
	c-32,0-62.3-14.5-82.3-39.5h103.9l13.7-29l14.2,29h32.6C224.2,256.1,194,270.6,162,270.6z"/>
</svg>
