<svg id="Layer_1" data-name="Layer 1" xmlns="http://www.w3.org/2000/svg" viewBox="0 0 22 24">
  <defs>
    <style>
      .cls-1 {
        fill: #58595b;
      }

    </style>
  </defs>
  <title>NoTransactions</title>
  <path class="cls-1" d="M13.09,9.31l-2.5,1.5a.49.49,0,0,0-.24.42v3a.5.5,0,0,0,.24.43l2.5,1.5a.52.52,0,0,0,.52,0l2.5-1.5a.5.5,0,0,0,.24-.43v-3a.49.49,0,0,0-.24-.42l-2.5-1.5A.49.49,0,0,0,13.09,9.31ZM15.35,14l-2,1.2-2-1.2V11.52l2-1.2,2,1.2Z"
    transform="translate(-2.35 -0.73)" />
  <path class="cls-1" d="M23.85,17.23a.5.5,0,0,0-.5.5v.7l-.62.33a.5.5,0,0,0,.23.94.53.53,0,0,0,.24-.06l.88-.46a.5.5,0,0,0,.27-.45v-1A.5.5,0,0,0,23.85,17.23Z"
    transform="translate(-2.35 -0.73)" />
  <path class="cls-1" d="M17.5,21.5l-1.75.91a.51.51,0,0,0-.21.68.5.5,0,0,0,.44.27.46.46,0,0,0,.23-.06L18,22.38a.5.5,0,0,0,.21-.67A.49.49,0,0,0,17.5,21.5Z"
    transform="translate(-2.35 -0.73)" />
  <path class="cls-1" d="M21,19.67l-1.75.91a.51.51,0,0,0-.21.68.5.5,0,0,0,.44.27.46.46,0,0,0,.23-.06l1.75-.91a.5.5,0,0,0-.46-.89Z"
    transform="translate(-2.35 -0.73)" />
  <path class="cls-1" d="M14,23.33l-.65.34-.65-.34a.5.5,0,1,0-.47.88l.89.47a.55.55,0,0,0,.46,0l.89-.47a.5.5,0,1,0-.47-.88Z"
    transform="translate(-2.35 -0.73)" />
  <path class="cls-1" d="M7.46,20.58l-1.75-.91a.5.5,0,0,0-.67.21.51.51,0,0,0,.21.68L7,21.47a.46.46,0,0,0,.23.06.5.5,0,0,0,.44-.27A.51.51,0,0,0,7.46,20.58Z"
    transform="translate(-2.35 -0.73)" />
  <path class="cls-1" d="M11,22.41,9.2,21.5a.5.5,0,0,0-.46.88l1.75.92a.46.46,0,0,0,.23.06.5.5,0,0,0,.44-.27A.51.51,0,0,0,11,22.41Z"
    transform="translate(-2.35 -0.73)" />
  <path class="cls-1" d="M4,18.76l-.62-.33v-.7a.5.5,0,0,0-1,0v1a.5.5,0,0,0,.27.45l.88.46a.53.53,0,0,0,.24.06A.5.5,0,0,0,4,18.76Z"
    transform="translate(-2.35 -0.73)" />
  <path class="cls-1" d="M2.85,12.23a.5.5,0,0,0,.5-.5v-2a.5.5,0,0,0-1,0v2A.5.5,0,0,0,2.85,12.23Z" transform="translate(-2.35 -0.73)"
  />
  <path class="cls-1" d="M2.85,16.23a.5.5,0,0,0,.5-.5v-2a.5.5,0,0,0-1,0v2A.5.5,0,0,0,2.85,16.23Z" transform="translate(-2.35 -0.73)"
  />
  <path class="cls-1" d="M2.85,8.23a.5.5,0,0,0,.5-.5V7L4,6.71a.5.5,0,1,0-.47-.88l-.88.46a.5.5,0,0,0-.27.44v1A.5.5,0,0,0,2.85,8.23Z"
    transform="translate(-2.35 -0.73)" />
  <path class="cls-1" d="M7,4l-1.75.91A.51.51,0,0,0,5,5.59a.5.5,0,0,0,.44.27.46.46,0,0,0,.23-.06l1.75-.92A.5.5,0,1,0,7,4Z"
    transform="translate(-2.35 -0.73)" />
  <path class="cls-1" d="M9,4A.46.46,0,0,0,9.2,4L11,3.06a.51.51,0,0,0,.21-.68.5.5,0,0,0-.67-.21l-1.75.91a.51.51,0,0,0-.21.68A.5.5,0,0,0,9,4Z"
    transform="translate(-2.35 -0.73)" />
  <path class="cls-1" d="M12.46,2.2a.53.53,0,0,0,.24-.06l.65-.34.65.34a.5.5,0,1,0,.47-.88L13.58.79a.53.53,0,0,0-.46,0l-.89.47a.5.5,0,0,0,.23.94Z"
    transform="translate(-2.35 -0.73)" />
  <path class="cls-1" d="M18,3.08l-1.75-.91a.5.5,0,0,0-.67.21.51.51,0,0,0,.21.68L17.5,4a.46.46,0,0,0,.23.06.5.5,0,0,0,.44-.27A.51.51,0,0,0,18,3.08Z"
    transform="translate(-2.35 -0.73)" />
  <path class="cls-1" d="M21.45,4.91,19.7,4a.49.49,0,0,0-.67.21.5.5,0,0,0,.21.67L21,5.8a.46.46,0,0,0,.23.06.5.5,0,0,0,.23-1Z"
    transform="translate(-2.35 -0.73)" />
  <path class="cls-1" d="M24.08,6.29l-.88-.46a.5.5,0,1,0-.47.88l.62.33v.69a.5.5,0,0,0,1,0v-1A.5.5,0,0,0,24.08,6.29Z" transform="translate(-2.35 -0.73)"
  />
  <path class="cls-1" d="M23.85,13.23a.5.5,0,0,0-.5.5v2a.5.5,0,0,0,1,0v-2A.5.5,0,0,0,23.85,13.23Z" transform="translate(-2.35 -0.73)"
  />
  <path class="cls-1" d="M23.85,9.23a.5.5,0,0,0-.5.5v2a.5.5,0,0,0,1,0v-2A.5.5,0,0,0,23.85,9.23Z" transform="translate(-2.35 -0.73)"
  />
</svg>
