<svg id="Free_Icons" data-name="Free Icons" xmlns="http://www.w3.org/2000/svg" viewBox="0 0 17.6 14.09">
  <defs>
    <style>
      .cls-1 {
        fill: #3f4552;
      }
    </style>
  </defs>
  <title>PasswordHide</title>
  <path class="cls-1" d="M368.44,700.78,364.66,697l2-2a.48.48,0,0,0,0-.7.5.5,0,0,0-.71,0l-2,2-.2-.2a.47.47,0,0,0-.35-.15h-7.25a.48.48,0,0,0-.36.15l-4.68,4.74a.5.5,0,0,0,0,.7l3.78,3.82-2,2a.51.51,0,0,0,0,.71.49.49,0,0,0,.35.14.5.5,0,0,0,.36-.14l2-2,.2.21a.51.51,0,0,0,.36.15h7.25a.51.51,0,0,0,.35-.15l4.68-4.74A.5.5,0,0,0,368.44,700.78ZM363.25,697,362.2,698l-1.11-1.12h2.11Zm-4.49,4.18,1-1,.16.16-1,1Zm1.88-.16.16.16-1,1-.15-.15Zm-1.21,2.24a.52.52,0,0,0,.35.14.5.5,0,0,0,.35-.14l1.73-1.73a.51.51,0,0,0,0-.71l-.51-.5.84-.84,1.68,1.7-4.09,4.14-1.71-1.73.85-.84Zm1.21-3.65-.51-.51a.48.48,0,0,0-.7,0l-1.73,1.72a.54.54,0,0,0-.14.36.5.5,0,0,0,.14.35l.51.51-.84.84-1.68-1.7,4.09-4.15,1.71,1.73Zm-8.46,1.57,4.19-4.24h2.1l-3.84,3.89a.5.5,0,0,0,0,.7l2,2.06-1.05,1.06Zm4.13,4.18,1.06-1.06,1.1,1.12h-2.1Zm6.89.06h-2.11l3.84-3.89a.5.5,0,0,0,0-.7l-2-2.06,1.06-1.06,3.42,3.47Z"
    transform="translate(-350.98 -694.08)" />
</svg>
