<?xml version="1.0" encoding="utf-8"?>
<!-- Generator: Adobe Illustrator 22.0.0, SVG Export Plug-In . SVG Version: 6.00 Build 0)  -->
<svg version="1.1" id="Layer_1" xmlns="http://www.w3.org/2000/svg" xmlns:xlink="http://www.w3.org/1999/xlink" x="0px" y="0px"
	 viewBox="0 0 26.7 25.7" style="enable-background:new 0 0 26.7 25.7;" xml:space="preserve">
<style type="text/css">
	.st0{fill:#3F4552;}
	.st1{fill:none;stroke:#3F4552;stroke-width:1.2;stroke-linejoin:round;stroke-miterlimit:10;}
</style>
<g>
	<path class="st0" d="M15,13.6C15,13.6,15,13.6,15,13.6l-0.8-0.8l2.6-2.6c0.2-0.2,0.2-0.6,0-0.9c-0.3-0.2-0.6-0.3-0.9,0l-2.6,2.5
		l-2.5-2.5c-0.2-0.2-0.6-0.2-0.9,0s-0.2,0.6,0,0.9l2.5,2.5l-2.5,2.6c-0.2,0.2-0.2,0.6,0,0.9c0.1,0.1,0.3,0.2,0.4,0.2
		s0.3-0.1,0.4-0.2l2.6-2.6l0.8,0.8c0,0,0,0,0,0l1.7,1.7c0.1,0.1,0.3,0.2,0.4,0.2s0.3-0.1,0.4-0.2c0.1-0.1,0.2-0.3,0.2-0.4
		c0-0.2-0.1-0.3-0.2-0.4L15,13.6z"/>
</g>
<polygon class="st1" points="23.9,18.9 13.4,24.4 2.9,18.9 2.9,6.9 13.4,1.4 23.9,6.9 "/>
</svg>
