<?xml version="1.0" encoding="utf-8"?>
<!-- Generator: Adobe Illustrator 22.0.0, SVG Export Plug-In . SVG Version: 6.00 Build 0)  -->
<svg version="1.1" id="Layer_1" xmlns="http://www.w3.org/2000/svg" xmlns:xlink="http://www.w3.org/1999/xlink" x="0px" y="0px"
	 viewBox="0 0 26.7 25.7" style="enable-background:new 0 0 26.7 25.7;" xml:space="preserve">
<style type="text/css">
	.st0{fill:none;stroke:#3F4552;stroke-width:1.9;stroke-linejoin:round;stroke-miterlimit:10;}
	.st1{fill:#3F4552;stroke:#3F4552;stroke-width:0.75;stroke-miterlimit:10;}
</style>
<g>
	<polygon class="st0" points="23.9,18.9 13.4,24.4 2.9,18.9 2.9,6.9 13.4,1.4 23.9,6.9 	"/>
</g>
<g>
	<path class="st1" d="M16.6,15.4l-1.7-1.7c0,0,0,0,0,0l-4.2-4.2c-0.2-0.2-0.5-0.2-0.7,0s-0.2,0.5,0,0.7l1.7,1.7l2.5,2.5l1.7,1.7
		c0.2,0.2,0.5,0.2,0.7,0C16.8,15.9,16.8,15.6,16.6,15.4z"/>
	<path class="st1" d="M16.7,9.5c-0.2-0.2-0.5-0.2-0.7,0l-6,6c-0.2,0.2-0.2,0.5,0,0.7s0.5,0.2,0.7,0l6-6C16.9,10,16.9,9.7,16.7,9.5z"
		/>
</g>
</svg>
