<svg id="Layer_1" data-name="Layer 1" xmlns="http://www.w3.org/2000/svg" viewBox="0 0 24 20"><defs><style>.cls-1{fill:#404653;}</style></defs><title>Wallet</title><path class="cls-1" d="M36.5,29h-10a.47.47,0,0,1-.35-.15l-2.5-2.5a.48.48,0,0,1,0-.7l2.5-2.5A.47.47,0,0,1,26.5,23h10a.5.5,0,0,1,.5.5v5A.5.5,0,0,1,36.5,29Zm-9.79-1H36V24H26.71l-2,2Z" transform="translate(-13 -15)"/><path class="cls-1" d="M32.5,35h-19a.5.5,0,0,1-.5-.5v-17a.5.5,0,0,1,.5-.5h19a.5.5,0,0,1,.5.5v6a.5.5,0,0,1-1,0V18H14V34H32V28.5a.5.5,0,0,1,1,0v6A.5.5,0,0,1,32.5,35Z" transform="translate(-13 -15)"/><path class="cls-1" d="M34.5,33h-2a.5.5,0,0,1,0-1H34V29a.5.5,0,0,1,1,0v3.5A.5.5,0,0,1,34.5,33Z" transform="translate(-13 -15)"/><path class="cls-1" d="M34.5,24a.5.5,0,0,1-.5-.5V16H15.71l-1.86,1.85a.49.49,0,0,1-.7-.7l2-2A.47.47,0,0,1,15.5,15h19a.5.5,0,0,1,.5.5v8A.5.5,0,0,1,34.5,24Z" transform="translate(-13 -15)"/><path class="cls-1" d="M27.5,27a.5.5,0,0,1-.5-.5v-1a.5.5,0,0,1,1,0v1A.5.5,0,0,1,27.5,27Z" transform="translate(-13 -15)"/></svg>